<svg id="Layer_1" data-name="Layer 1" xmlns="http://www.w3.org/2000/svg" viewBox="0 0 95 95"><defs><style>.cls-1{fill:#00b900;}.cls-2{fill:#fff;}</style></defs><title>logo-update</title><circle class="cls-1" cx="47.5" cy="48" r="45"/><g id="g7962"><path id="path7964" class="cls-2" d="M75.84,46c0-12.68-12.71-23-28.34-23S19.16,33.32,19.16,46c0,11.36,10.08,20.88,23.7,22.68.92.2,2.18.61,2.5,1.4a5.83,5.83,0,0,1,.09,2.56l-.4,2.43c-.13.72-.57,2.8,2.45,1.53S63.82,67,69.76,60.14h0c4.11-4.5,6.08-9.07,6.08-14.14"/></g><g id="g7966"><path id="path7968" class="cls-1" d="M41.74,39.87h-2a.55.55,0,0,0-.55.55V52.77a.55.55,0,0,0,.55.55h2a.55.55,0,0,0,.55-.55V40.42a.55.55,0,0,0-.55-.55"/></g><g id="g7970"><path id="path7972" class="cls-1" d="M55.42,39.87h-2a.56.56,0,0,0-.56.55v7.33l-5.65-7.64,0,0h0l0,0h0l0,0,0,0h0l0,0H44.78a.55.55,0,0,0-.55.55V52.77a.55.55,0,0,0,.55.55h2a.55.55,0,0,0,.55-.55V45.43L53,53.08a.47.47,0,0,0,.14.14h0l0,0h0l0,0h0l0,0h0l.15,0h2a.56.56,0,0,0,.56-.55V40.42a.56.56,0,0,0-.56-.55"/></g><g id="g7974"><path id="path7976" class="cls-1" d="M37,50.23h-5.4V40.42a.55.55,0,0,0-.55-.55H29a.55.55,0,0,0-.55.55V52.77h0a.58.58,0,0,0,.15.38h0a.53.53,0,0,0,.38.16H37a.55.55,0,0,0,.55-.55v-2a.54.54,0,0,0-.55-.55"/></g><g id="g7978"><path id="path7980" class="cls-1" d="M66.4,43a.55.55,0,0,0,.55-.55v-2a.55.55,0,0,0-.55-.55H58.46a.56.56,0,0,0-.38.15h0a.56.56,0,0,0-.15.38h0V52.77h0a.58.58,0,0,0,.15.38h0a.53.53,0,0,0,.38.16H66.4a.55.55,0,0,0,.55-.55v-2a.55.55,0,0,0-.55-.55H61V48.14h5.4a.55.55,0,0,0,.55-.55v-2a.55.55,0,0,0-.55-.55H61V43Z"/></g></svg>